<?xml version="1.0" encoding="UTF-8"?>
<svg width="58px" height="83px" viewBox="0 0 58 83" version="1.1" xmlns="http://www.w3.org/2000/svg" xmlns:xlink="http://www.w3.org/1999/xlink">
    <!-- Generator: Sketch 57 (83077) - https://sketch.com -->
    <title>logo-en</title>
    <desc>Created with Sketch.</desc>
    <g id="Page-1" stroke="none" stroke-width="1" fill="none" fill-rule="evenodd">
        <g id="logo-en" transform="translate(0.000000, -0.000000)" fill-rule="nonzero">
            <path d="M57.9877176,29.0136471 C57.9877176,45.0120941 45.0230118,57.9822588 29.0191059,57.9822588 C13.0152,57.9822588 0.0504941176,45.0120941 0.0504941176,29.0136471 C0.0504941176,13.0152 13.0152,0.0450352941 29.0191059,0.0450352941 C45.0230118,0.0450352941 57.9877176,13.0097412 57.9877176,29.0136471" id="Path" fill="#FFFFFF"></path>
            <path d="M2.07025857,29.0136471 C2.0687838,39.8041008 8.5026601,49.5555872 18.4235294,53.7994353 C23.9437647,51.1164235 28.2275765,46.3126588 28.8294118,41.9346824 C30.044,34.9364706 26.2364706,28.8048471 18.9230118,27.2818353 C18.7797028,27.2503582 18.638426,27.2102538 18.4999529,27.1617412 C18.2392941,27.1617412 14.6787765,27.1985882 11.9288941,26.4657412 C11.8947765,26.4944 10.3512941,27.7144471 10.9845176,30.0562824 C10.9845176,30.0562824 7.32301176,26.2351059 9.64983529,21.1010824 C9.64983529,21.1010824 10.7770824,18.6800941 14.6050824,16.2031529 L14.6937882,16.0980706 C15.7186824,14.8834824 18.1737882,12.7408941 21.7384,11.0486588 C23.5561882,10.2298353 26.6786353,9.05891765 30.1736471,8.76004706 C45.5948235,7.32574118 53.6848,18.676 54.2061176,19.4320471 C50.2264039,8.9785307 40.2045482,2.06868486 29.0191059,2.06616471 C14.1356235,2.06616471 2.07025857,14.1301647 2.07025857,29.0136471" id="Path" fill="#1F5AA7"></path>
            <path d="M44.4088941,51.1341647 C47.937506,48.6753491 50.8291713,45.4108223 52.8441412,41.6112471 C49.6561882,33.2524235 42.4614588,26.3401882 32.8361882,24.2794824 C35.8685647,25.1133176 48.8933176,31.2272 45.8977882,47.0182118 C45.5593036,48.4418172 45.0597868,49.8222417 44.4088941,51.1328" id="Path" fill="#1F5AA7"></path>
            <path d="M39.4932235,14.8097882 C31.7771765,13.7821647 25.288,15.7773647 20.1703529,19.3406118 C21.397557,18.6768463 22.6752525,18.1110097 23.9915294,17.6483765 C24.3327059,19.1304471 25.5786824,20.3777882 27.2668235,20.7298824 C29.5199529,21.1993412 31.6993882,19.8810353 32.1360941,17.7875765 C32.2502355,17.2347001 32.2343511,16.662864 32.0896941,16.1171765 C46.5692235,15.6777412 54.4585882,26.3265412 55.9529412,29.6141176 C55.9529412,29.4135059 55.9611318,29.2115294 55.9611318,29.0095529 C55.9619489,27.0792729 55.7556066,25.1544789 55.3456471,23.2682353 C52.3719529,19.7391059 46.284,15.5603765 39.4877647,14.8070588" id="Path" fill="#1F5AA7"></path>
            <path d="M8.09134118,68.7170353 L6.77303529,64.8385412 L5.46974118,68.7170353 L8.09134118,68.7170353 Z M5.75769412,62.2619765 L7.91529412,62.2619765 L11.9752941,73.0813647 L9.54475294,73.0813647 L8.68225882,70.5798588 L4.89383529,70.5798588 L4.02997647,73.0813647 L1.69632941,73.0813647 L5.75769412,62.2619765 Z" id="Shape" fill="#225AA6"></path>
            <path d="M16.9987765,71.1557647 C17.5105046,71.1688444 18.0200228,71.0840792 18.4999529,70.9060235 C18.891697,70.7557334 19.2387578,70.5082353 19.5084706,70.1868235 C19.7727904,69.8589469 19.966114,69.4797351 20.0761882,69.0732235 C20.2029131,68.6016662 20.2639906,68.1148831 20.2576941,67.6266353 C20.2626039,67.1442893 20.2089888,66.6631284 20.0980235,66.1936941 C20.0097797,65.8002396 19.8365031,65.4308623 19.5903529,65.1114824 C19.3515456,64.8126557 19.0419636,64.5781239 18.6896471,64.4291294 C18.2590828,64.2554136 17.7972203,64.1727058 17.3331294,64.1862118 L15.544,64.1862118 L15.544,71.1557647 L16.9987765,71.1557647 Z M13.2867765,62.2619765 L17.3317647,62.2619765 C18.9885176,62.2619765 20.2790745,62.7114196 21.2034353,63.6103059 C22.1277961,64.5091922 22.5899765,65.8429647 22.5899765,67.6116235 C22.6053916,68.415952 22.4745288,69.2163882 22.2037647,69.9739294 C21.7273643,71.2964806 20.6592102,72.3196864 19.3174118,72.7388235 C18.5535414,72.9820871 17.7553233,73.1000685 16.9537412,73.0881882 L13.2867765,73.0881882 L13.2867765,62.2619765 Z" id="Shape" fill="#225AA6"></path>
            <polygon id="Path" fill="#225AA6" points="24.3941176 62.2619765 26.4248 62.2619765 30.8792 69.3529882 30.8792 62.2619765 33.0763765 62.2619765 33.0763765 73.08 31.0607059 73.08 26.5912941 66.0504 26.5912941 73.08 24.3941176 73.08"></polygon>
            <path d="M40.0909647,71.4136941 C41.0408,71.4136941 41.7481725,71.0902588 42.2130824,70.4433882 C42.6779922,69.7965176 42.9099922,68.8726118 42.909085,67.6716706 C42.909085,66.4798275 42.6770824,65.5577412 42.2130824,64.9054118 C41.7490824,64.2530824 41.0417098,63.9278275 40.0909647,63.9296395 C39.142949,63.9296395 38.4360314,64.254902 37.9702118,64.9054118 C37.5043922,65.5559216 37.2719373,66.4780078 37.2728444,67.6716706 C37.2728444,68.8735216 37.505302,69.7974275 37.9702118,70.4433882 C38.4351216,71.089349 39.1420392,71.4127843 40.0909647,71.4136941 M40.1059765,73.3529412 C39.3647859,73.3655798 38.6283706,73.2320234 37.9388235,72.9599059 C37.3189518,72.7092513 36.7644525,72.3204483 36.3175529,71.8231059 C35.858475,71.3029005 35.5102139,70.6946043 35.2940235,70.0353412 C34.8210184,68.4950565 34.8210184,66.8482847 35.2940235,65.308 C35.5105814,64.6471359 35.8618901,64.0383867 36.3257412,63.5202353 C36.7765167,63.0242249 37.3328946,62.6357397 37.9538353,62.3834353 C39.3454441,61.8593874 40.8801559,61.8593874 42.2717647,62.3834353 C42.8899731,62.6335431 43.4423647,63.0225052 43.8862118,63.5202353 C44.3404328,64.0411681 44.6831884,64.6495825 44.8933647,65.308 C45.1354888,66.0721026 45.2529929,66.8702084 45.2413647,67.6716706 C45.2519466,68.4726555 45.1363509,69.270312 44.8988235,70.0353412 C44.6918563,70.6939952 44.3508048,71.3026837 43.8971294,71.8231059 C43.454066,72.3211065 42.9020473,72.7101349 42.2840471,72.9599059 C41.5890575,73.2329699 40.8471033,73.3665217 40.1005176,73.3529412" id="Shape" fill="#225AA6"></path>
            <path d="M56.2586353,69.3379765 C56.213171,69.8890211 56.0776306,70.4288776 55.8574118,70.9360471 C55.6466677,71.4157983 55.3423095,71.8486735 54.9621647,72.2093176 C54.5603379,72.5822096 54.0860354,72.8683705 53.5688,73.0499765 C52.9545614,73.2619437 52.3078931,73.3644868 51.6582118,73.3529412 C50.9179798,73.3673374 50.1828179,73.2279262 49.4992471,72.9435294 C48.897727,72.6844991 48.3639703,72.290369 47.9393882,71.7917176 C47.5027782,71.2650763 47.1802697,70.6535186 46.9922824,69.9957647 C46.7729516,69.2422392 46.6658096,68.460516 46.6743059,67.6757647 C46.6625588,66.8742947 46.7800656,66.0761699 47.0223059,65.3120941 C47.2314655,64.6546766 47.5717658,64.0465001 48.0226353,63.5243294 C48.4546741,63.0309613 48.9931937,62.6422379 49.5975059,62.3875294 C50.2604234,62.1155228 50.9717801,61.9813309 51.6882353,61.9931294 C52.2968947,61.981432 52.9034217,62.0685396 53.4841882,62.2510588 C53.961739,62.4036094 54.4010368,62.6567641 54.7724706,62.9934588 C55.1260209,63.3239269 55.4115911,63.7202945 55.6131294,64.1602824 C55.8357835,64.6480017 55.9936115,65.1627781 56.0825882,65.6914824 L53.8403765,65.9780706 C53.7298353,65.3421176 53.5142118,64.8426353 53.1976,64.4768941 C52.8809882,64.1111529 52.3787765,63.9310118 51.6882353,63.9310118 C50.8202824,63.9310118 50.1615843,64.2571765 49.7121412,64.9095059 C49.262698,65.5618353 49.0379765,66.4834667 49.0379765,67.6744 C49.0379765,68.876251 49.2777098,69.8006118 49.7571765,70.4474824 C50.1976501,71.0738529 50.9227916,71.4377048 51.6882353,71.4164235 C52.3860549,71.4164235 52.8987294,71.2371922 53.2262588,70.8787294 C53.5537882,70.5202667 53.7584941,70.0075922 53.8403765,69.3407059 L56.2586353,69.3379765 Z" id="Path" fill="#225AA6"></path>
            <path d="M1.65129412,82.1320967 L1.65129412,76.6732706 L3.79661176,76.6732706 C4.69913725,76.6732706 5.38421961,76.9007216 5.85185882,77.3556235 C6.31949804,77.8105255 6.55240784,78.4733176 6.55059881,79.344 C6.55059881,80.2410667 6.30494118,80.9302431 5.81364706,81.4115294 C5.32235294,81.8928157 4.62089412,82.1330039 3.70927059,82.1320967 L1.65129412,82.1320967 Z M3.7352,80.8956706 C4.60133333,80.8956706 5.0344,80.3952784 5.0344,79.3944941 C5.0344,78.8950118 4.93386667,78.5247216 4.7328,78.2836235 C4.53218824,78.0407059 4.22512941,77.9206118 3.81162353,77.9206118 L3.11698824,77.9206118 L3.11698824,80.8997647 L3.7352,80.8956706 Z" id="Shape" fill="#225AA6"></path>
            <polygon id="Path" fill="#225AA6" points="7.40216471 82.1320941 7.40216471 76.6732706 8.87058824 76.6732706 8.87058824 82.1320941"></polygon>
            <path d="M11.4635294,79.9171765 C10.8412235,79.8011765 10.3895059,79.6087529 10.1070118,79.344 C9.81576072,79.0577126 9.66165585,78.6600226 9.68395294,78.2522353 C9.68395294,77.7063529 9.87364706,77.283749 10.2530353,76.9844235 C10.6324235,76.685098 11.1723922,76.5372549 11.8729412,76.5408941 C12.5552941,76.5408941 13.0925333,76.6837333 13.4846588,76.9694118 C13.8803965,77.2620732 14.1266406,77.7146029 14.1574588,78.2058353 L12.7354353,78.3518588 C12.7064931,78.1590617 12.6097104,77.9829172 12.4624941,77.8551059 C12.2867893,77.7414502 12.0789732,77.6878202 11.8702118,77.7022588 C11.6807838,77.6907391 11.4918599,77.73183 11.3243294,77.8209882 C11.2013345,77.8928725 11.1278997,78.0266287 11.1332706,78.1689882 C11.1295652,78.2878293 11.1834332,78.4011554 11.2779294,78.4733176 C11.4180159,78.5668811 11.5776773,78.6271043 11.7446588,78.6493647 L12.4856941,78.7940235 C13.0916235,78.9113882 13.5383373,79.1065412 13.8258353,79.3794824 C14.1206101,79.6684922 14.2775789,80.0698556 14.2570824,80.4821647 C14.2570824,81.0580706 14.0587451,81.5002353 13.6620706,81.8086588 C13.2653961,82.1170824 12.6972235,82.2708392 11.9575529,82.2699334 C11.2151529,82.2699334 10.6424314,82.1084392 10.2393882,81.7854588 C9.8363451,81.4624784 9.61480784,80.9798275 9.57477647,80.3375059 L11.0336471,80.3375059 C11.0460781,80.5599024 11.1497767,80.7672996 11.3202353,80.9106824 C11.5247605,81.0454537 11.7677356,81.109672 12.0121412,81.0935529 C12.2146818,81.1060133 12.4164069,81.0585486 12.5921412,80.9570824 C12.7235437,80.8706628 12.7993543,80.7211187 12.7913882,80.5640471 C12.7972515,80.434699 12.7415817,80.3102011 12.6412706,80.2283294 C12.5072612,80.1318872 12.3508308,80.071288 12.1868235,80.0522824 L11.4635294,79.9171765 Z" id="Path" fill="#225AA6"></path>
            <polygon id="Path" fill="#225AA6" points="16.24 82.1320941 16.24 77.9247059 14.6664941 77.9247059 14.6664941 76.6800941 19.2805647 76.6800941 19.2805647 77.9247059 17.7070588 77.9247059 17.7070588 82.1334588"></polygon>
            <path d="M23.0457882,82.1320941 L22.1519059,80.2542588 L21.3576471,80.2542588 L21.3576471,82.1320941 L19.9601882,82.1320941 L19.9601882,76.6732706 L22.1082353,76.6732706 C22.8206118,76.6732706 23.3614902,76.819749 23.7308706,77.1127059 C24.100251,77.4056627 24.2849412,77.8346353 24.2849412,78.3996235 C24.2923373,78.7197608 24.2216066,79.036878 24.0788706,79.3235294 C23.9429543,79.5865148 23.7333417,79.8041894 23.4756706,79.9499294 L24.5906353,82.1334588 L23.0457882,82.1320941 Z M22.0754824,79.1160941 C22.291649,79.1333654 22.5072596,79.0765751 22.6868706,78.9550588 C22.8238313,78.8249945 22.8941468,78.639663 22.8779294,78.4514824 C22.89204,78.2648286 22.8134583,78.083172 22.6677647,77.9656471 C22.4764349,77.8481386 22.2530196,77.793717 22.0290824,77.8100706 L21.3576471,77.8100706 L21.3576471,79.1160941 L22.0754824,79.1160941 Z" id="Shape" fill="#225AA6"></path>
            <polygon id="Path" fill="#225AA6" points="25.1610824 82.1320941 25.1610824 76.6732706 26.6281412 76.6732706 26.6281412 82.1320941"></polygon>
            <path d="M27.6366588,82.1320941 L27.6366588,76.6732706 L29.9198118,76.6732706 C31.2281098,76.6732706 31.8827137,77.144549 31.8836235,78.0871059 C31.8911323,78.3252874 31.8340741,78.5610648 31.7184941,78.7694588 C31.5958167,78.9677322 31.4199121,79.1275595 31.2108235,79.2307294 C31.4613341,79.3430299 31.6754627,79.5231249 31.8290353,79.7506824 C31.9680226,79.980271 32.0372487,80.2453217 32.0282824,80.5135529 C32.0282824,81.0339608 31.8485961,81.4324549 31.4892235,81.7090353 C31.129851,81.9856157 30.6144471,82.1243608 29.9430118,82.1252706 L27.6366588,82.1320941 Z M29.8133647,78.7721882 C29.9890494,78.787117 30.1650297,78.7470564 30.3169412,78.6575529 C30.4272825,78.5628181 30.4843562,78.4201338 30.4697882,78.2754353 C30.4838356,78.1275801 30.4203211,77.9829942 30.3019294,77.8933176 C30.1281421,77.802694 29.9323061,77.7629592 29.7369412,77.7786824 L29.0191059,77.7786824 L29.0191059,78.7721882 L29.8133647,78.7721882 Z M29.8201882,81.0335059 C30.0348691,81.051066 30.249442,80.9983807 30.4315765,80.8833882 C30.5659654,80.7694704 30.6371143,80.5976967 30.6226353,80.4221176 C30.6379034,80.2541175 30.5713643,80.0890396 30.4438588,79.9785882 C30.2707915,79.872995 30.068618,79.8251999 29.8665882,79.8421176 L29.0191059,79.8421176 L29.0191059,81.0348706 L29.8201882,81.0335059 Z" id="Shape" fill="#225AA6"></path>
            <path d="M35.8480941,76.6787294 L37.3137882,76.6787294 L37.3137882,79.8721412 C37.3137882,81.4706667 36.5404549,82.2699294 34.9937882,82.2699294 C33.4653176,82.2699294 32.7015373,81.4706667 32.7024462,79.8721412 L32.7024462,76.6787294 L34.1681412,76.6787294 L34.1681412,79.9253647 C34.1681412,80.3020235 34.2345569,80.5749647 34.3673882,80.7441882 C34.5038588,80.9175059 34.7126588,81.0048471 35.0088,81.0048471 C35.2521285,81.0264823 35.4909537,80.9294278 35.6502118,80.7441882 C35.7821333,80.5704157 35.848549,80.2974745 35.8494588,79.9253647 L35.8480941,76.6787294 Z" id="Path" fill="#225AA6"></path>
            <polygon id="Path" fill="#225AA6" points="39.4986824 82.1320941 39.4986824 77.9247059 37.9251765 77.9247059 37.9251765 76.6800941 42.5392471 76.6800941 42.5392471 77.9247059 40.9657412 77.9247059 40.9657412 82.1334588"></polygon>
            <polygon id="Path" fill="#225AA6" points="43.2188706 82.1320941 43.2188706 76.6732706 44.6845647 76.6732706 44.6845647 82.1320941"></polygon>
            <path d="M48.1986824,82.2699294 C47.6968451,82.2841277 47.2001641,82.1654892 46.7589176,81.9260235 C46.361501,81.6998901 46.0428815,81.3574574 45.8459294,80.9448 C45.626548,80.4691945 45.5196134,79.9494647 45.5334118,79.4258824 C45.5334118,78.5160784 45.7726902,77.808251 46.2512471,77.3024 C46.7298039,76.796549 47.3916863,76.5418039 48.2368941,76.5381647 C48.7385182,76.5250437 49.2347122,76.6446199 49.6752941,76.8848 C50.0727525,77.1115008 50.3913397,77.4543749 50.5882824,77.8673882 C50.8085665,78.3418155 50.9164455,78.860662 50.9035294,79.3835765 C50.9035294,80.2933804 50.664251,81.0007529 50.1856941,81.5056941 C49.7071373,82.0106353 49.0448,82.2653804 48.1986824,82.2699294 Z M48.2136941,81.0103059 C48.5558265,81.0309023 48.8851041,80.8767942 49.0884706,80.6008941 C49.2849882,80.3279529 49.3832471,79.9280941 49.3832471,79.4013176 C49.3832471,78.332298 48.9961255,77.7977882 48.2218824,77.7977882 C47.8798472,77.7776997 47.5508,77.9316999 47.3471059,78.2072 C47.1505882,78.4801412 47.0523294,78.88 47.0523294,79.4067765 C47.0523294,79.9335529 47.1505882,80.3334118 47.3471059,80.6063529 C47.5490841,80.8788699 47.8751105,81.0308444 48.2136941,81.0103059 L48.2136941,81.0103059 Z" id="Shape" fill="#225AA6"></path>
            <polygon id="Path" fill="#225AA6" points="55.1040941 82.1320941 53.1402824 79.0082824 53.1402824 82.1320941 51.7510118 82.1320941 51.7510118 76.6732706 53.0338353 76.6732706 54.9976471 79.8025412 54.9976471 76.6787294 56.3882824 76.6787294 56.3882824 82.1375529"></polygon>
        </g>
    </g>
</svg>